<svg id="Ebene_1" xmlns="http://www.w3.org/2000/svg" viewBox="0 0 223.13 44.73">
  <defs>
    <style>
      .cls-1 {
        fill: #fff;
      }
    </style>
  </defs>
  <path class="cls-1" d="M43.4,5.37l-1.35.62c-.13-.29-.33-.65-.83-.65-.31,0-.52.19-.52.44,0,.9,2.77.81,2.77,2.83,0,1.22-.87,2.1-2.32,2.1s-2.08-1.08-2.26-1.58l1.35-.67c.18.39.54.74.99.74.39,0,.59-.17.59-.46,0-.88-2.75-.81-2.75-2.93,0-1.19.86-1.97,2.18-1.97,1.42,0,1.97,1.03,2.14,1.53"></path>
  <polygon class="cls-1" points="47.61 5.41 47.61 10.59 45.99 10.59 45.99 5.41 44.56 5.41 44.56 3.96 49.04 3.96 49.04 5.41 47.61 5.41"></polygon>
  <path class="cls-1" d="M52.49,5.68l-.62,2.1h1.25l-.63-2.1ZM51.45,9.11l-.47,1.49h-1.63l2.29-6.63h1.7l2.29,6.63h-1.63l-.47-1.49h-2.08Z"></path>
  <path class="cls-1" d="M58.48,5.36v3.83h.33c1.09,0,1.81-.64,1.81-1.91s-.72-1.91-1.81-1.91h-.33ZM58.81,3.96c2.13,0,3.5,1.24,3.5,3.32s-1.36,3.32-3.5,3.32h-1.95V3.96h1.95Z"></path>
  <polygon class="cls-1" points="66.25 5.41 66.25 10.59 64.63 10.59 64.63 5.41 63.2 5.41 63.2 3.96 67.68 3.96 67.68 5.41 66.25 5.41"></polygon>
  <polygon class="cls-1" points="50.58 27.82 47.34 27.82 47.34 22.63 42.61 22.63 42.61 27.82 39.36 27.82 39.36 14.56 42.61 14.56 42.61 19.71 47.34 19.71 47.34 14.56 50.58 14.56 50.58 27.82"></polygon>
  <path class="cls-1" d="M59.62,17.98l-1.25,4.21h2.5l-1.25-4.21ZM57.54,24.84l-.95,2.98h-3.26l4.59-13.26h3.41l4.59,13.26h-3.26l-.95-2.98h-4.17Z"></path>
  <polygon class="cls-1" points="68.67 27.82 68.67 14.56 71.91 14.56 71.91 24.92 75.89 24.92 75.89 27.82 68.67 27.82"></polygon>
  <polygon class="cls-1" points="82.86 17.45 82.86 27.82 79.62 27.82 79.62 17.45 76.76 17.45 76.76 14.56 85.72 14.56 85.72 17.45 82.86 17.45"></polygon>
  <polygon class="cls-1" points="88.57 27.82 88.57 14.56 95.64 14.56 95.64 17.45 91.81 17.45 91.81 19.67 95.07 19.67 95.07 22.55 91.81 22.55 91.81 24.92 95.79 24.92 95.79 27.82 88.57 27.82"></polygon>
  <path class="cls-1" d="M102.78,17.34v2.86h.97c.89,0,1.44-.55,1.44-1.46s-.42-1.4-1.59-1.4h-.81ZM106.66,22.13s-.02-.04,3.05,5.69h-3.58l-2.37-4.91h-.99v4.91h-3.24v-13.26h4.32c3.13,0,4.64,1.44,4.64,4.07,0,1.46-.62,2.84-1.84,3.5"></path>
  <polygon class="cls-1" points="115.69 19.69 115.69 27.82 112.51 27.82 112.51 14.56 115.81 14.56 120.66 22.78 120.66 14.56 123.84 14.56 123.84 27.82 120.62 27.82 115.69 19.69"></polygon>
  <path class="cls-1" d="M136.71,18l-1.25,4.21h2.5l-1.25-4.21ZM134.63,24.86l-.95,2.98h-3.26l4.59-13.26h3.41l4.59,13.26h-3.26l-.95-2.98h-4.17Z"></path>
  <polygon class="cls-1" points="151.77 26.75 148.85 19.13 148.85 27.83 145.74 27.83 145.74 14.57 149.95 14.57 153.24 22.96 156.56 14.57 160.77 14.57 160.77 27.83 157.66 27.83 157.66 19.13 154.74 26.75 151.77 26.75"></polygon>
  <g>
    <path class="cls-1" d="M176.36,17.39l-2.69,1.23c-.26-.59-.66-1.31-1.67-1.31-.63,0-1.04.38-1.04.89,0,1.8,5.53,1.61,5.53,5.67,0,2.44-1.74,4.21-4.64,4.21s-4.17-2.16-4.51-3.16l2.71-1.35c.36.78,1.08,1.48,1.99,1.48.78,0,1.18-.34,1.18-.93,0-1.76-5.5-1.61-5.5-5.85,0-2.39,1.73-3.94,4.36-3.94,2.84,0,3.94,2.07,4.28,3.07"></path>
    <path class="cls-1" d="M188.8,26.63l-1.58-1.79s-.53,1.11-3.53.45c-.35-.08-.68-.13-.97-.17v-2.56h3.25v-2.87h-3.25v-2.21h3.82v-2.89h-7.05v13.24s.95-.55,4.21.07c4.26.81,5.1-1.25,5.1-1.25"></path>
    <path class="cls-1" d="M200.12,26.63l-1.58-1.79s-.53,1.11-3.52.45c-.35-.08-.68-.13-.98-.17v-2.56h3.25v-2.87h-3.25v-2.21h3.82v-2.89h-7.05v13.24s.95-.55,4.21.07c4.26.81,5.1-1.25,5.1-1.25"></path>
    <path class="cls-1" d="M25.24,14.54c.57,1.73-.5,3.03-2.75,3.03-.27-1.33-.63-2.56-1.01-3.67,1.45-.83,3.27-.84,3.76.64M22.84,25.3c.11-.82.18-1.74.18-2.78,0-.6-.03-1.19-.07-1.77.4-.04,1.11-.12,1.62-.28-.22,2.92-1.5,4.5-1.72,4.84M17.19,28.21c-2.39,0-2.74-3.43-2.74-5.5,0-3.63,1.03-6.83.99-6.84,0,0,1.57-.22,2.74-.68,0-.05,1.39,4.15,1.39,7.52,0,2.31-.11,5.5-2.38,5.5M11.75,8.25c-3.92,0-4.93-2.34-4.04-3.82.86-1.43,3.98-1.58,7.14,2.99-1.04.69-2.13.83-3.1.83M8.63,21.2c.93-.41,1.9-.55,2.36-.6-.06.75-.1,1.54-.1,2.36,0,.75.05,1.48.14,2.19-1.27-1.42-1.99-2.93-2.39-3.95M28.84,9.84s2.58-1.69,2.58-4.45C31.42,2.19,28.99,0,26,0,22.3,0,19.4,3.99,17.25,5.7c0,0-2.22-3.08-5.07-4.75C9.33-.73,5.94-.24,4.35,2.9c-1.21,2.4-.35,5.97,2.97,7.46,3.01,1.35,5.75.78,6.34.63-.15.27-.41.78-.72,1.5-.02.05-.05.1-.07.16-3.87.85-7.69-.75-8.96-2.93l-1.28.62c.25,1.21,2.32,5.79,9.09,5.84-.1.4-.2.83-.29,1.27-4.61.06-7.12,1.72-7.12,1.72l1.65,3.3,1.08-.55c.68,1.69,4.01,9.83,10.16,9.83,5.79,0,9.15-7.31,9.15-11.83,2.28-1.2,3.54-4.4,2.25-7.23-1.55-3.4-4.72-3.81-8.49-2.19-.61-1.27-1.07-2.01-1.07-2.01,2.92-2.38,4.22-4.61,6.65-4.61,2.07,0,3.03,1.47,3.03,2.8,0,1.04-.87,2.15-.87,2.15l.99.99Z"></path>
    <path class="cls-1" d="M1.66,22.09l-.05-.1-.42-.85,1.38-.69.37.75.07.13c-.52.27-.96.52-1.35.75M3.91,23.14l-1.38.69-.47-.94c.42-.17.89-.37,1.42-.62l.43.87ZM.39,20.49c-.26.13-.36.44-.24.7l.66,1.32.04.09c-.4.27-.69.48-.86.63l.15.3c.22-.05.56-.15,1.02-.31l.7,1.41c.09.18.26.28.45.29.08,0,.17-.01.25-.05l2.6-1.3-2.18-4.37-2.61,1.3Z"></path>
    <path class="cls-1" d="M220.01,39.82c-.32,0-.74.23-.74.76,0,.31.18.67.67.67.24,0,.6-.12.69-.63.01-.05.01-.09.01-.14,0-.43-.35-.66-.63-.66"></path>
    <path class="cls-1" d="M192.32,33.22c0-.33-.17-.44-.38-.43-.11.26-.49.49-1.24.49-.6,0-1.33-.11-2.05-.2-.72-.11-1.42-.2-2.01-.2-1.7,0-2.21.87-2.21,1.89s.73,1.68,1.4,1.68c.56,0,.71-.48.71-.81-.62,0-1.4-.3-1.4-.99,0-.54.69-.69,1.47-.69.38,0,.84.06,1.29.15l-.5,2.34c-.25,1.17-.93,4.26-.99,4.55.13.14.36.25.62.25.38,0,.64-.13.74-.6.43-2.41.96-4.82,1.3-6.29.6.13,1.17.24,1.64.24,1.22,0,1.62-.81,1.62-1.37"></path>
    <path class="cls-1" d="M200.23,37.6c-.78,1.62-1.96,2.6-2.57,2.6-.1,0-.13-.14-.13-.39,0-.69.32-2.16.62-3.47.55,0,1.06-.02,1.32-.08.17-.07.23-.27.23-.51,0-.08-.01-.18-.02-.27-.33.04-.83.06-1.34.07.18-.75.33-1.37.36-1.59.01-.06.01-.12.01-.17,0-.65-.51-.8-1.13-.8-.21,1-.41,1.85-.57,2.58h-.68c-.29,0-.35.35-.32.6.1.06.42.11.84.13-.12.55-.23,1-.32,1.39-.54,1.03-1.38,2.51-2.01,2.51-.02,0-.04-.04-.04-.11,0-.35.2-1.37.38-2.15.24-.55.58-1.3.58-1.67-.14-.35-.67-.47-1.22-.47-.32.53-.33,1.17-.42,1.82-.69,1.34-1.93,2.61-2.42,2.61-.14,0-.2-.16-.2-.37,0-.84.68-2.92.76-3.14.04-.11.05-.19.05-.26,0-.44-.44-.7-.82-.7-.11,0-.19.01-.29.05-.25.64-.86,2.96-.86,4.07,0,.98.45,1.38.98,1.38.94,0,1.75-1.16,2.39-2.23l.04.02c-.07.38-.25.86-.25,1.23s.3.98,1.04.98c.65,0,1.38-.98,1.93-1.91-.08.37-.1.55-.1.73,0,.44.3,1.19,1.16,1.19,1.37,0,3.03-2.32,3.29-3.32.06-.19-.12-.38-.26-.35"></path>
    <path class="cls-1" d="M204.43,40.09c-.17,0-.26-.17-.26-.54,0-.07,0-.15.01-.25.11-1.18.72-2.71,1.4-2.71.39,0,.85.13,1.28.47-.93,1.79-1.97,3.03-2.42,3.03M204.3,44.11c-.32,0-.47-.26-.47-.48,0-.67,1.15-1.42,2.12-2.01-.31,1.5-.84,2.48-1.66,2.48M221.3,37.37c-2.38,0-4.3,2.82-4.84,2.82-.1,0-.15-.1-.15-.32,0-.66.36-2.18.69-3.55.24.01.48.01.7.01.76,0,1.46-.02,1.73-.08.18-.1.35-.44.35-.75,0-.05,0-.08-.01-.14-.46.06-1.56.12-2.57.15.19-.76.35-1.37.37-1.59.01-.07.01-.12.01-.17,0-.65-.51-.8-1.13-.8-.14.63-.36,1.59-.6,2.6h-.66c-.3-.01-.36.35-.33.6.08.05.39.08.82.12-.11.49-.22.98-.33,1.44-.54,1.02-1.37,2.47-1.99,2.47-.02,0-.04-.04-.04-.11,0-.35.2-1.37.38-2.15.24-.55.58-1.3.58-1.67-.14-.35-.67-.47-1.22-.47-.32.53-.33,1.17-.42,1.82-.69,1.34-1.93,2.61-2.42,2.61-.14,0-.2-.16-.2-.37,0-.84.68-2.92.76-3.14.04-.11.05-.19.05-.26,0-.44-.44-.7-.82-.7-.11,0-.19.01-.29.05-.13.34-.37,1.16-.56,2.01-.42.88-1.06,1.64-1.72,2.22.23-.88.51-1.83.94-3.32.01-.04.01-.08.01-.12,0-.44-.7-.69-1.13-.69-.06,0-.12,0-.18.01l-.02.3c-.39-.26-.88-.42-1.4-.42-2.2,0-2.89,2.82-2.89,4.07,0,.86.63,1.39,1.13,1.39.8,0,2.02-1.42,2.83-3.2h.05c-.13.7-.45,1.81-.69,2.85-1.21.68-3.02,1.51-3.02,2.65,0,.64.6,1.18,1.53,1.18,1.66,0,2.11-1.79,2.64-3.9.62-.44,1.21-1.02,1.68-1.71-.04.28-.06.53-.06.74,0,.98.45,1.39.98,1.39.94,0,1.75-1.16,2.39-2.23l.04.02c-.07.38-.25.86-.25,1.23s.3.98,1.04.98c.66,0,1.4-1.01,1.95-1.95-.07.36-.11.63-.11.74,0,.44.35,1.22,1.11,1.22,1.12,0,2.65-3.01,4.81-3.01,1.06,0,1.18.8,1.18,1.31.63.06,1.12-.35,1.12-.92,0-.7-.71-1.28-1.84-1.28"></path>
  </g>
</svg>